<svg id="Capa_1" enable-background="new 0 0 512 512" height="512" viewBox="0 0 512 512" width="512" xmlns="http://www.w3.org/2000/svg"><g><path d="m464.172 15.481c-5.363-9.694-15.179-15.481-26.258-15.481h-179.773c-12.699 0-24.072 8.042-28.301 20.01l-5.285 14.955c-17.448-9.676-37.506-15.196-58.831-15.196-67.109 0-121.707 54.597-121.707 121.706 0 18.161 3.902 35.627 11.599 51.913 1.77 3.745 6.241 5.347 9.986 3.576 3.744-1.77 5.346-6.241 3.576-9.985-6.743-14.267-10.162-29.577-10.162-45.504 0-58.838 47.869-106.706 106.707-106.706s106.707 47.868 106.707 106.706-47.869 106.707-106.707 106.707c-31.375 0-61.026-13.728-81.351-37.663-2.68-3.157-7.414-3.544-10.571-.862-3.157 2.681-3.544 7.413-.862 10.571 18.547 21.843 43.908 36.221 71.636 41.1l-5.304 15.005c-4.015 11.365-2.327 23.527 4.633 33.367 6.958 9.838 17.859 15.48 29.908 15.48h97.01l-32.362 154.233c-2.647 12.597 3.435 24.666 15.135 30.032 3.755 1.722 7.655 2.556 11.479 2.556 8.095 0 15.85-3.735 21.162-10.68l105.147-137.496c2.516-3.29 1.889-7.997-1.402-10.513-3.29-2.517-7.997-1.888-10.513 1.401l-105.146 137.495c-4.274 5.59-10.279 5.526-14.473 3.603-4.192-1.923-8.156-6.429-6.709-13.316l34.26-163.275c.464-2.211-.094-4.514-1.518-6.267-1.424-1.754-3.562-2.772-5.822-2.772h-106.247c-7.116 0-13.553-3.332-17.663-9.142-4.11-5.812-5.108-12.996-2.736-19.708l6.467-18.297c1.941.093 3.888.148 5.842.148 67.109 0 121.706-54.597 121.706-121.706 0-40.275-19.67-76.038-49.902-98.203l6.454-18.265c2.116-5.986 7.806-10.008 14.16-10.008h179.773c5.541 0 10.451 2.895 13.133 7.743 2.681 4.846 2.525 10.54-.419 15.233l-122.505 195.484c-1.448 2.312-1.527 5.228-.206 7.615 1.32 2.387 3.833 3.868 6.561 3.868h85.137c8.419 0 15.671 4.506 19.401 12.054 3.729 7.547 2.904 16.044-2.209 22.729l-39.319 51.418c-2.516 3.29-1.889 7.997 1.402 10.513 1.359 1.04 2.961 1.543 4.55 1.543 2.257 0 4.487-1.014 5.964-2.945l39.319-51.418c8.527-11.151 9.961-25.898 3.741-38.486-6.221-12.588-18.808-20.409-32.849-20.409h-71.587l115.309-184c5.885-9.382 6.197-20.77.835-30.461z"/><path d="m127.733 196.137 8.821-23.159h58.42l8.732 23.137c1.133 3.003 3.987 4.854 7.017 4.854.88 0 1.775-.156 2.647-.485 3.875-1.463 5.831-5.79 4.368-9.665l-42.414-112.387c-.025-.069-.053-.137-.08-.205-1.561-3.796-5.222-6.248-9.325-6.248-.004 0-.008 0-.012 0-4.108.005-7.767 2.465-9.322 6.268-.022.056-.045.112-.066.168l-42.803 112.383c-1.475 3.871.469 8.204 4.339 9.678 3.869 1.473 8.203-.468 9.678-4.339zm38.165-100.203 23.415 62.045h-47.046z"/></g></svg>